<svg fill="none" xmlns="http://www.w3.org/2000/svg">
  <symbol viewBox="0 0 37 37" id="google-icon">
    <path d="M33.0532 15.2212H31.8322V15.1583H18.1898V21.2216H26.7565C25.5067 24.7512 22.1484 27.2848 18.1898 27.2848C13.1671 27.2848 9.09489 23.2126 9.09489 18.1899C9.09489 13.1673 13.1671 9.09501 18.1898 9.09501C20.5083 9.09501 22.6175 9.96964 24.2235 11.3983L28.511 7.11081C25.8038 4.58773 22.1825 3.03174 18.1898 3.03174C9.8187 3.03174 3.03162 9.81882 3.03162 18.1899C3.03162 26.561 9.8187 33.3481 18.1898 33.3481C26.5609 33.3481 33.348 26.561 33.348 18.1899C33.348 17.1736 33.2434 16.1815 33.0532 15.2212Z" fill="#FFC107"/>
    <path d="M4.77936 11.1345L9.75958 14.7869C11.1071 11.4506 14.3707 9.09501 18.1898 9.09501C20.5083 9.09501 22.6175 9.96964 24.2235 11.3983L28.511 7.11081C25.8038 4.58773 22.1825 3.03174 18.1898 3.03174C12.3676 3.03174 7.31836 6.31879 4.77936 11.1345Z" fill="#FF3D00"/>
    <path d="M18.1898 33.3481C22.1052 33.3481 25.6628 31.8497 28.3526 29.413L23.6612 25.4431C22.0882 26.6394 20.166 27.2864 18.1898 27.2848C14.2472 27.2848 10.8995 24.7708 9.63834 21.2625L4.69525 25.0709C7.20393 29.9799 12.2986 33.3481 18.1898 33.3481Z" fill="#4CAF50"/>
    <path d="M33.0532 15.2211H31.8322V15.1582H18.1898V21.2215H26.7565C26.1586 22.9013 25.0818 24.3692 23.6589 25.4438L23.6612 25.4423L28.3526 29.4122C28.0207 29.7139 33.348 25.7689 33.348 18.1898C33.348 17.1735 33.2434 16.1814 33.0532 15.2211Z" fill="#1976D2"/>
  </symbol>

  <symbol viewBox="0 0 40 40" id="linkedIn-icon">
    <g clip-path="url(#clip0_1_246)">
      <path d="M19.2767 35.9383V21.335C19.7017 21.3733 20.11 21.3933 20.54 21.3933C22.5783 21.3933 24.4967 20.86 26.1233 19.905V35.935C26.1233 37.305 25.7983 38.3166 25.165 38.9916C24.535 39.6633 23.6983 40 22.68 40C21.68 40 20.885 39.6633 20.2333 38.97C19.6033 38.2983 19.2767 37.2866 19.2767 35.9383ZM19.315 0.943308C23.5567 -0.545026 28.385 -0.465026 32.0133 2.58831C32.6883 3.20331 33.4583 3.97664 33.765 4.88831C34.1317 6.04164 32.4817 4.76664 32.255 4.60997C31.0717 3.85497 29.8917 3.22164 28.5683 2.78664C21.4333 0.644974 14.6867 4.51497 10.4917 10.525C8.73834 13.1816 7.59668 15.9783 6.65834 19.0533C6.55834 19.39 6.47668 19.8283 6.29168 20.1233C6.10501 20.4616 6.21168 19.2133 6.21168 19.1733C6.35168 17.9016 6.61834 16.6733 6.94668 15.445C8.88334 8.89497 13.1617 3.44331 19.3167 0.943308H19.315ZM27.5283 12.7083C27.5283 13.3693 27.3982 14.0238 27.1452 14.6345C26.8923 15.2452 26.5215 15.8 26.0541 16.2674C25.5867 16.7348 25.0319 17.1056 24.4212 17.3585C23.8105 17.6115 23.156 17.7416 22.495 17.7416C21.834 17.7416 21.1795 17.6115 20.5688 17.3585C19.9582 17.1056 19.4033 16.7348 18.9359 16.2674C18.4685 15.8 18.0978 15.2452 17.8448 14.6345C17.5919 14.0238 17.4617 13.3693 17.4617 12.7083C17.4617 12.0473 17.5919 11.3928 17.8448 10.7821C18.0978 10.1715 18.4685 9.61659 18.9359 9.1492C19.4033 8.68182 19.9582 8.31106 20.5688 8.05811C21.1795 7.80517 21.834 7.67497 22.495 7.67497C23.156 7.67497 23.8105 7.80517 24.4212 8.05811C25.0319 8.31106 25.5867 8.68182 26.0541 9.1492C26.5215 9.61659 26.8923 10.1715 27.1452 10.7821C27.3982 11.3928 27.5283 12.0473 27.5283 12.7083Z" fill="#095CF3"/>
    </g>
    <defs>
      <clipPath id="clip0_1_246">
        <rect width="40" height="40" fill="white"/>
      </clipPath>
    </defs>
  </symbol>

  <symbol viewBox="0 0 35 35" id="slack-icon">
    <g clip-path="url(#clip0_1_221)">
      <path fill-rule="evenodd" clip-rule="evenodd" d="M7.34257 21.9985C7.34295 22.479 7.24858 22.9548 7.06486 23.3987C6.88114 23.8426 6.61167 24.2459 6.27188 24.5856C5.93209 24.9252 5.52865 25.1946 5.08466 25.3781C4.64066 25.5616 4.16483 25.6558 3.68439 25.6553C3.20419 25.6554 2.72867 25.561 2.28501 25.3773C1.84135 25.1935 1.43826 24.9242 1.09878 24.5846C0.759298 24.2449 0.49009 23.8417 0.306549 23.398C0.123007 22.9543 0.0287326 22.4787 0.0291149 21.9985C0.0287324 21.5182 0.123055 21.0425 0.306688 20.5987C0.49032 20.1549 0.759658 19.7516 1.09929 19.412C1.43893 19.0723 1.84219 18.803 2.28602 18.6194C2.72985 18.4357 3.20553 18.3414 3.68584 18.3418H7.34402V21.9985H7.34257ZM9.17093 21.9985C9.17055 21.5182 9.26487 21.0425 9.44851 20.5987C9.63214 20.1549 9.90148 19.7516 10.2411 19.412C10.5807 19.0723 10.984 18.803 11.4278 18.6194C11.8717 18.4357 12.3473 18.3414 12.8277 18.3418C13.308 18.3414 13.7837 18.4357 14.2275 18.6194C14.6713 18.803 15.0746 19.0723 15.4142 19.412C15.7538 19.7516 16.0232 20.1549 16.2068 20.5987C16.3904 21.0425 16.4848 21.5182 16.4844 21.9985V31.1418C16.4848 31.6221 16.3904 32.0978 16.2068 32.5416C16.0232 32.9854 15.7538 33.3887 15.4142 33.7283C15.0746 34.068 14.6713 34.3373 14.2275 34.521C13.7837 34.7046 13.308 34.7989 12.8277 34.7985C12.3473 34.7989 11.8717 34.7046 11.4278 34.521C10.984 34.3373 10.5807 34.068 10.2411 33.7283C9.90148 33.3887 9.63214 32.9854 9.44851 32.5416C9.26487 32.0978 9.17055 31.6221 9.17093 31.1418V21.9985Z" fill="#E01E5A"/>
      <path fill-rule="evenodd" clip-rule="evenodd" d="M12.8276 7.31491C12.3472 7.31529 11.8714 7.22092 11.4275 7.0372C10.9836 6.85348 10.5802 6.58401 10.2406 6.24422C9.90092 5.90443 9.63161 5.50099 9.44806 5.057C9.26452 4.613 9.17034 4.13717 9.17091 3.65673C9.17053 3.17641 9.26485 2.70073 9.44848 2.25691C9.63211 1.81308 9.90145 1.40981 10.2411 1.07018C10.5807 0.730544 10.984 0.461206 11.4278 0.277574C11.8716 0.0939415 12.3473 -0.00038141 12.8276 1.15911e-06C13.308 -0.00038141 13.7836 0.0939415 14.2275 0.277574C14.6713 0.461206 15.0746 0.730544 15.4142 1.07018C15.7538 1.40981 16.0232 1.81308 16.2068 2.25691C16.3904 2.70073 16.4847 3.17641 16.4844 3.65673V7.31636L12.8291 7.31636L12.8276 7.31491ZM12.8276 9.17091C13.308 9.17053 13.7836 9.26485 14.2275 9.44848C14.6713 9.63211 15.0746 9.90145 15.4142 10.2411C15.7538 10.5807 16.0232 10.984 16.2068 11.4278C16.3904 11.8716 16.4847 12.3473 16.4844 12.8276C16.4847 13.308 16.3904 13.7836 16.2068 14.2275C16.0232 14.6713 15.7538 15.0746 15.4142 15.4142C15.0746 15.7538 14.6713 16.0232 14.2275 16.2068C13.7836 16.3904 13.308 16.4847 12.8276 16.4844H3.65673C3.17653 16.4847 2.70098 16.3905 2.25724 16.2069C1.81351 16.0234 1.41031 15.7542 1.07069 15.4147C0.731078 15.0752 0.46171 14.6721 0.277992 14.2285C0.0942739 13.7848 -0.000190153 13.3093 1.15911e-06 12.8291C-0.00038141 12.3488 0.0939415 11.8731 0.277574 11.4293C0.461206 10.9854 0.730544 10.5822 1.07018 10.2425C1.40981 9.90291 1.81308 9.63357 2.25691 9.44994C2.70073 9.2663 3.17641 9.17198 3.65673 9.17237H12.8291L12.8276 9.17091Z" fill="#36C5F0"/>
      <path fill-rule="evenodd" clip-rule="evenodd" d="M27.4837 12.8276C27.4833 12.3472 27.5777 11.8714 27.7614 11.4275C27.9451 10.9836 28.2146 10.5802 28.5544 10.2406C28.8941 9.90092 29.2976 9.63161 29.7416 9.44806C30.1856 9.26452 30.6614 9.17034 31.1418 9.17091C31.6222 9.17053 32.0978 9.26485 32.5417 9.44848C32.9855 9.63212 33.3888 9.90145 33.7284 10.2411C34.068 10.5807 34.3374 10.984 34.521 11.4278C34.7046 11.8716 34.799 12.3473 34.7986 12.8276C34.799 13.308 34.7046 13.7836 34.521 14.2275C34.3374 14.6713 34.068 15.0746 33.7284 15.4142C33.3888 15.7538 32.9855 16.0232 32.5417 16.2068C32.0978 16.3904 31.6222 16.4847 31.1418 16.4844H27.4837V12.8291V12.8276ZM25.6553 12.8276C25.6557 13.308 25.5614 13.7836 25.3777 14.2275C25.1941 14.6713 24.9248 15.0746 24.5851 15.4142C24.2455 15.7538 23.8422 16.0232 23.3984 16.2068C22.9546 16.3904 22.4789 16.4847 21.9986 16.4844C21.5181 16.4849 21.0423 16.3908 20.5983 16.2072C20.1543 16.0237 19.7509 15.7544 19.4111 15.4147C19.0713 15.075 18.8018 14.6717 18.6181 14.2278C18.4344 13.7839 18.34 13.3081 18.3404 12.8276V3.65673C18.34 3.17629 18.4344 2.70049 18.6181 2.25657C18.8018 1.81265 19.0713 1.40932 19.4111 1.06966C19.7509 0.730011 20.1543 0.460703 20.5983 0.277157C21.0423 0.0936104 21.5181 -0.000571317 21.9986 2.6073e-06C22.4789 -0.000379962 22.9546 0.093943 23.3984 0.277575C23.8422 0.461207 24.2455 0.730545 24.5851 1.07018C24.9248 1.40981 25.1941 1.81308 25.3777 2.25691C25.5614 2.70074 25.6557 3.17641 25.6553 3.65673V12.8291V12.8276Z" fill="#2EB67D"/>
      <path fill-rule="evenodd" clip-rule="evenodd" d="M21.9985 27.4836C22.4788 27.4832 22.9545 27.5776 23.3984 27.7612C23.8422 27.9448 24.2454 28.2142 24.5851 28.5538C24.9247 28.8934 25.194 29.2967 25.3777 29.7405C25.5613 30.1844 25.6556 30.66 25.6553 31.1403C25.6558 31.6208 25.5616 32.0966 25.3781 32.5406C25.1946 32.9846 24.9252 33.3881 24.5856 33.7278C24.2459 34.0676 23.8426 34.3371 23.3987 34.5208C22.9548 34.7045 22.479 34.7989 21.9985 34.7985C21.5181 34.7989 21.0423 34.7045 20.5984 34.5208C20.1544 34.3371 19.7511 34.0676 19.4115 33.7278C19.0718 33.3881 18.8025 32.9846 18.619 32.5406C18.4354 32.0966 18.3412 31.6208 18.3418 31.1403V27.4836H21.9985ZM21.9985 25.6553C21.5182 25.6556 21.0425 25.5613 20.5987 25.3777C20.1549 25.194 19.7516 24.9247 19.412 24.5851C19.0723 24.2454 18.803 23.8422 18.6194 23.3983C18.4357 22.9545 18.3414 22.4788 18.3418 21.9985C18.3414 21.5182 18.4357 21.0425 18.6194 20.5987C18.803 20.1549 19.0723 19.7516 19.412 19.412C19.7516 19.0723 20.1549 18.803 20.5987 18.6194C21.0425 18.4357 21.5182 18.3414 21.9985 18.3418H31.1694C31.6498 18.3414 32.1254 18.4357 32.5693 18.6194C33.0131 18.803 33.4164 19.0723 33.756 19.412C34.0956 19.7516 34.365 20.1549 34.5486 20.5987C34.7322 21.0425 34.8265 21.5182 34.8262 21.9985C34.8265 22.4788 34.7322 22.9545 34.5486 23.3983C34.365 23.8422 34.0956 24.2454 33.756 24.5851C33.4164 24.9247 33.0131 25.194 32.5693 25.3777C32.1254 25.5613 31.6498 25.6556 31.1694 25.6553H21.9985Z" fill="#ECB22E"/>
    </g>
    <defs>
      <clipPath id="clip0_1_221">
        <rect width="34.9091" height="34.9091" rx="17.4545" fill="white"/>
      </clipPath>
    </defs>
  </symbol>

  <symbol viewBox="0 0 26 30" id="paypal-icon">
    <g clip-path="url(#clip0_1_238)">
      <path d="M21.5436 2.33206C20.1613 0.756524 17.6626 0.0810547 14.466 0.0810547L5.18859 0.0810547C4.87232 0.0810664 4.56643 0.193901 4.3259 0.399273C4.08538 0.604645 3.92601 0.889082 3.87644 1.20145L0.0135034 25.7012C-0.0632793 26.1843 0.310813 26.6218 0.800476 26.6218H6.52803L7.96646 17.498L7.92182 17.7837C8.0243 17.1388 8.57586 16.6631 9.22901 16.6631H11.9507C17.2975 16.6631 21.4842 14.4914 22.7071 8.209C22.7435 8.0232 22.7749 7.84235 22.8021 7.66567C22.6477 7.58393 22.6477 7.58393 22.8021 7.66567C23.1663 5.34364 22.7996 3.76305 21.5436 2.33206Z" fill="#27346A"/>
      <path d="M10.158 6.8292C10.3146 6.75464 10.4859 6.716 10.6593 6.71611L17.9326 6.71611C18.7939 6.71611 19.5972 6.77216 20.3313 6.89031C20.5368 6.92306 20.7411 6.96216 20.9441 7.00756C21.2318 7.07105 21.5162 7.14876 21.7963 7.24039C22.1572 7.36092 22.4933 7.50129 22.8022 7.66567C23.1663 5.34275 22.7996 3.76305 21.5436 2.33206C20.1605 0.756524 17.6626 0.0810547 14.466 0.0810547L5.1878 0.0810547C4.53455 0.0810547 3.97882 0.556631 3.87644 1.20145L0.0135039 25.7003C-0.0632787 26.1842 0.310813 26.6211 0.799683 26.6211H6.52803L9.51233 7.69623C9.54167 7.51021 9.61577 7.33411 9.72825 7.18308C9.84073 7.03204 9.98823 6.9106 10.158 6.8292Z" fill="#27346A"/>
      <path d="M22.7071 8.20886C21.4841 14.4904 17.2976 16.663 11.9507 16.663H9.22817C8.57502 16.663 8.02336 17.1387 7.92187 17.7836L6.13236 29.1279C6.0655 29.5507 6.39247 29.9338 6.82023 29.9338H11.6484C11.925 29.9337 12.1925 29.835 12.4027 29.6553C12.613 29.4756 12.7523 29.2268 12.7955 28.9537L12.8425 28.7077L13.7525 22.9404L13.8111 22.6217C13.8543 22.3485 13.9936 22.0997 14.2038 21.9201C14.4141 21.7404 14.6815 21.6417 14.9581 21.6416H15.6807C20.3578 21.6416 24.02 19.7414 25.0902 14.246C25.5369 11.9495 25.3058 10.0321 24.1241 8.68533C23.7657 8.27741 23.3206 7.94052 22.802 7.66553C22.774 7.8431 22.7435 8.02305 22.7071 8.20886Z" fill="#2790C3"/>
      <path d="M21.5222 7.15543C21.3315 7.09975 21.139 7.05045 20.945 7.00762C20.7419 6.96297 20.5376 6.92413 20.3322 6.89116C19.5973 6.77222 18.7946 6.71607 17.9325 6.71607H10.6601C10.4865 6.71567 10.3152 6.75465 10.1588 6.83005C9.98882 6.9112 9.84116 7.03257 9.72863 7.18365C9.61611 7.33473 9.5421 7.51096 9.51302 7.69708L7.96725 17.4981L7.92261 17.7838C8.02429 17.1389 8.57586 16.6632 9.2291 16.6632H11.9516C17.2984 16.6632 21.485 14.4914 22.7079 8.20906C22.7443 8.02326 22.7749 7.84321 22.803 7.66573C22.4933 7.50225 22.1581 7.36098 21.7971 7.24124C21.706 7.21105 21.6144 7.18244 21.5223 7.15543" fill="#1F264F"/>
    </g>
    <defs>
      <clipPath id="clip0_1_238">
        <rect width="25.3958" height="29.9591" fill="white"/>
      </clipPath>
    </defs>
  </symbol>
</svg>
