  <svg width="650" height="300" viewBox="0 0 650 300" fill="none" xmlns="http://www.w3.org/2000/svg">
  <g style="mix-blend-mode:luminosity" opacity="0.05">
    <path d="M325 -1L325 61.5C325 116.728 280.228 161.5 225 161.5L162.5 161.5L162.5 99C162.5 43.7715 207.272 -1.00001 262.5 -1L325 -1Z" fill="#FEC247"/>
    <path d="M325 324L325 261.5C325 206.272 280.228 161.5 225 161.5L162.5 161.5L162.5 224C162.5 279.228 207.272 324 262.5 324L325 324Z" fill="#6B5ACC"/>
    <path d="M162.5 161.5L162.5 224C162.5 279.228 117.728 324 62.5 324L7.1031e-06 324L9.83506e-06 261.5C1.22492e-05 206.272 44.7715 161.5 100 161.5L162.5 161.5Z" fill="#21C1F3"/>
    <path d="M162.5 161.5L162.5 99C162.5 43.7715 117.728 -1 62.5 -1L2.13093e-05 -1.00001L1.85773e-05 61.5C1.61632e-05 116.728 44.7715 161.5 100 161.5L162.5 161.5Z" fill="#EE4F3C"/>
    <path d="M650 -1L650 61.5C650 116.728 605.228 161.5 550 161.5L487.5 161.5L487.5 99C487.5 43.7715 532.272 -1.00001 587.5 -1L650 -1Z" fill="#FEC247"/>
    <path d="M650 324L650 261.5C650 206.272 605.228 161.5 550 161.5L487.5 161.5L487.5 224C487.5 279.228 532.272 324 587.5 324L650 324Z" fill="#6B5ACC"/>
    <path d="M487.5 161.5L487.5 224C487.5 279.228 442.728 324 387.5 324L325 324L325 261.5C325 206.272 369.772 161.5 425 161.5L487.5 161.5Z" fill="#21C1F3"/>
    <path d="M487.5 161.5L487.5 99C487.5 43.7715 442.728 -1 387.5 -1L325 -1.00001L325 61.5C325 116.728 369.772 161.5 425 161.5L487.5 161.5Z" fill="#EE4F3C"/>
  </g>
</svg>
