<svg width="15" height="15" viewBox="0 0 11 11" fill="none" xmlns="http://www.w3.org/2000/svg">
  <path
    d="M10.1865 3.53978L7.03081 3.08115L5.62012 0.22124C5.58159 0.142938 5.5182 0.07955 5.4399 0.0410202C5.24352 -0.0559258 5.00488 0.0248626 4.90669 0.22124L3.496 3.08115L0.340286 3.53978C0.253283 3.55221 0.173738 3.59322 0.112836 3.65537C0.0392086 3.73104 -0.00136334 3.83285 3.49825e-05 3.93843C0.00143331 4.044 0.0446875 4.1447 0.120293 4.2184L2.4035 6.44443L1.86408 9.58772C1.85143 9.66084 1.85952 9.73604 1.88744 9.80479C1.91535 9.87355 1.96197 9.93311 2.02201 9.97671C2.08205 10.0203 2.15311 10.0462 2.22713 10.0515C2.30115 10.0568 2.37516 10.0412 2.44078 10.0066L5.2634 8.52255L8.08602 10.0066C8.16308 10.0476 8.25257 10.0613 8.33833 10.0463C8.5546 10.0091 8.70002 9.80398 8.66273 9.58772L8.12331 6.44443L10.4065 4.2184C10.4687 4.1575 10.5097 4.07795 10.5221 3.99095C10.5557 3.77344 10.404 3.57209 10.1865 3.53978Z"
    fill="#FF993B"/>
</svg>